<svg xmlns="http://www.w3.org/2000/svg" width="67.569" height="19.147" viewBox="0 0 67.569 19.147">
  <g id="Group_229" data-name="Group 229" transform="translate(-6804 4603.394)">
    <path id="Path_64" data-name="Path 64" d="M191.841,146.745a.782.782,0,0,0-.017-.076.4.4,0,0,0-.017-.07.684.684,0,0,0-1.337.2.551.551,0,0,0,0,.083l.033.142a4,4,0,0,1,.072.457c.076.719,0,1.44.039,2.158-.03.714.037,1.429-.039,2.139a4.4,4.4,0,0,1-3.319,3.809,4.347,4.347,0,0,1-5.227-3.672,4.431,4.431,0,0,1-.048-.653v-3.249a4.544,4.544,0,0,1,.109-1h0a.6.6,0,0,1,.02-.085.694.694,0,0,0,0-.118.686.686,0,0,0-1.342-.2.078.078,0,0,0,0,.024l-.017.074a5.505,5.505,0,0,0-.107.712c-.063.738,0,1.479-.033,2.082v1.653a6.947,6.947,0,0,0,.111,1.257,5.661,5.661,0,0,0,11.235-1.207v-3.154a5.831,5.831,0,0,0-.115-1.309Z" transform="translate(6637.374 -4742.283)" fill="#f5f5f5"/>
    <path id="Path_65" data-name="Path 65" d="M186.52,131.248a.69.69,0,0,0,.529-.248v-.011a4.212,4.212,0,0,1,6.638-.046l.063.081h0a.691.691,0,0,0,1.085-.849c-.011-.015-.022-.033-.035-.048h0a5.556,5.556,0,0,0-8.809,0l-.044.059a.69.69,0,0,0,.571,1.076Z" transform="translate(6633.291 -4728.078)" fill="#33bbcf"/>
    <path id="Path_66" data-name="Path 66" d="M201.491,115.471c-.085.083-.279-.037-.423-.07a6.451,6.451,0,0,0-3.01.068c-.144.037-.185.022-.174-.139a8.347,8.347,0,0,1,.035-.871,1.832,1.832,0,0,1,1.934-1.524,1.86,1.86,0,0,1,1.662,1.825v.272h0C201.506,115.177,201.565,115.395,201.491,115.471Z" transform="translate(6623.863 -4716.323)" fill="#33bbcf"/>
    <path id="Path_67" data-name="Path 67" d="M175.783,181.114v2.1a.344.344,0,0,1-.207.372.327.327,0,0,1-.4-.142c-.218-.268-.436-.529-.625-.8a3.171,3.171,0,0,1,.048-3.739l.085-.094c.07.2.128.379.2.558a6.985,6.985,0,0,0,.812,1.481A.436.436,0,0,1,175.783,181.114Z" transform="translate(6642.569 -4767.856)" fill="#33bbcf"/>
    <path id="Path_68" data-name="Path 68" d="M231.67,182.074a7.621,7.621,0,0,1-.939,1.307.3.3,0,0,1-.364.087.316.316,0,0,1-.194-.325v-2.2a.233.233,0,0,1,.037-.146,6.7,6.7,0,0,0,1.05-2.11A3.139,3.139,0,0,1,231.67,182.074Z" transform="translate(6598.605 -4767.763)" fill="#33bbcf"/>
    <path id="Path_69" data-name="Path 69" d="M167.6,134.663a6.347,6.347,0,0,0-.828,1.457.126.126,0,0,1-.142.091h-2.8a.294.294,0,0,1-.3-.218.327.327,0,0,1,.107-.381c.272-.218.529-.462.812-.666A2.965,2.965,0,0,1,167.6,134.663Z" transform="translate(6650.754 -4733.072)" fill="#33bbcf"/>
    <path id="Path_70" data-name="Path 70" d="M234.228,136.015a.314.314,0,0,1-.335.218h-2.74c-.07,0-.126,0-.163-.087a7.234,7.234,0,0,0-.83-1.466,3.044,3.044,0,0,1,3.245.366c.237.181.46.383.693.571A.333.333,0,0,1,234.228,136.015Z" transform="translate(6598.615 -4733.1)" fill="#33bbcf"/>
    <path id="Path_71" data-name="Path 71" d="M116.4,146.964a.677.677,0,0,1,.218-.5.664.664,0,0,1,.5-.218.69.69,0,0,1,.505.218.677.677,0,0,1,.218.5v4.275l5.292-4.791a.671.671,0,0,1,.512-.185.692.692,0,0,1,.488.233.71.71,0,0,1-.054,1l-4.356,3.951,4.386,4.767a.669.669,0,0,1,.185.505.679.679,0,0,1-.218.5.717.717,0,0,1-1-.039l-4.406-4.78-.838.762v3.537a.664.664,0,0,1-.218.5.69.69,0,0,1-.505.218.714.714,0,0,1-.706-.706Z" transform="translate(6687.6 -4742.387)" fill="#f5f5f5"/>
    <path id="Path_72" data-name="Path 72" d="M255.815,157.326a.719.719,0,0,1-.708-.706v-3.872a.679.679,0,0,1,.218-.5.653.653,0,0,1,.5-.218h3.739a2.213,2.213,0,1,0,0-4.423h-3.746a.653.653,0,0,1-.5-.218.684.684,0,0,1-.218-.505.673.673,0,0,1,.218-.5.653.653,0,0,1,.5-.218h3.739a3.63,3.63,0,0,1,.969,7.15l2.585,2.831a.7.7,0,0,1,.194.505.715.715,0,0,1-1.235.457l-3.36-3.646h-2.178v3.164a.664.664,0,0,1-.218.5A.686.686,0,0,1,255.815,157.326Z" transform="translate(6579.106 -4742.321)" fill="#f5f5f5"/>
    <path id="Path_73" data-name="Path 73" d="M313.826,157.38a.714.714,0,0,1-.706-.706v-9.722a.708.708,0,0,1,1.289-.4l3.87,5.445,3.881-5.445a.706.706,0,0,1,1.287.4v9.722a.664.664,0,0,1-.218.5.688.688,0,0,1-.505.218.714.714,0,0,1-.706-.706v-7.5l-3.164,4.46a.693.693,0,0,1-.584.3.668.668,0,0,1-.573-.3l-3.167-4.46v7.494a.664.664,0,0,1-.218.5A.688.688,0,0,1,313.826,157.38Z" transform="translate(6533.722 -4742.375)" fill="#f5f5f5"/>
    <path id="Path_74" data-name="Path 74" d="M390.889,157.165a.669.669,0,0,1-.6.318h-5.259a.711.711,0,0,1-.505-1.209.682.682,0,0,1,.505-.218h4.181l-3.173-7.239-3.6,8.232a.653.653,0,0,1-.653.436.7.7,0,0,1-.287-.061.653.653,0,0,1-.372-.388.686.686,0,0,1,0-.544l4.251-9.713a.706.706,0,0,1,1.3,0l4.251,9.713A.666.666,0,0,1,390.889,157.165Z" transform="translate(6480.57 -4742.468)" fill="#f5f5f5"/>
  </g>
</svg>
