<svg xmlns="http://www.w3.org/2000/svg" xmlns:xlink="http://www.w3.org/1999/xlink" id="svg" version="1.1" viewBox="10.16 70.12 377.14 51.65"><g id="svgg"><path id="path0" d="M154.065 71.087 C 128.374 76.556,123.846 108.457,147.273 118.935 C 157.432 123.479,175.467 122.453,187.619 116.641 L 193.016 114.059 193.016 103.379 L 193.016 92.698 179.048 92.698 L 165.079 92.698 165.079 97.778 L 165.079 102.857 170.834 102.857 C 174.887 102.857,176.813 103.445,177.351 104.847 C 179.780 111.177,160.969 112.910,154.968 106.909 C 142.441 94.382,158.644 73.115,172.284 84.182 C 176.331 87.466,191.746 86.716,191.746 83.235 C 191.746 74.291,170.776 67.531,154.065 71.087 M10.159 95.871 L 10.159 120.841 32.698 120.419 C 50.807 120.080,56.001 119.579,59.118 117.872 C 68.570 112.693,67.932 100.017,58.046 96.570 L 54.038 95.173 58.009 92.758 C 65.014 88.498,64.794 79.080,57.576 74.190 C 54.432 72.060,51.152 71.692,32.063 71.324 L 10.159 70.901 10.159 95.871 M68.571 88.591 C 68.571 115.797,73.327 121.234,97.143 121.257 C 121.358 121.281,125.714 116.414,125.714 89.336 L 125.714 71.111 116.825 71.111 L 107.937 71.111 107.937 87.068 C 107.937 107.688,106.661 110.421,97.022 110.457 C 88.169 110.490,87.057 108.114,86.568 88.125 L 86.152 71.111 77.362 71.111 L 68.571 71.111 68.571 88.591 M214.122 75.238 C 213.141 77.508,208.276 88.432,203.312 99.513 C 198.347 110.594,194.286 119.880,194.286 120.148 C 194.286 123.301,212.450 120.196,213.722 116.825 L 215.160 113.016 226.186 113.016 L 237.212 113.016 238.540 116.825 C 239.856 120.602,239.951 120.635,249.393 120.635 L 258.918 120.635 257.109 116.305 C 256.114 113.924,252.834 106.638,249.819 100.115 C 246.805 93.591,242.648 84.412,240.582 79.717 L 236.825 71.179 226.366 71.145 L 215.907 71.111 214.122 75.238 M250.159 76.825 L 250.159 82.540 259.683 82.540 L 269.206 82.540 269.206 101.587 L 269.206 120.635 278.730 120.635 L 288.254 120.635 288.254 101.587 L 288.254 82.540 306.667 82.540 L 325.079 82.540 325.079 101.587 L 325.079 120.635 334.603 120.635 L 344.127 120.635 344.127 101.587 L 344.127 82.540 353.651 82.540 L 363.175 82.540 363.175 76.825 L 363.175 71.111 306.667 71.111 L 250.159 71.111 250.159 76.825 M368.254 95.873 L 368.254 120.635 377.778 120.635 L 387.302 120.635 387.302 95.873 L 387.302 71.111 377.778 71.111 L 368.254 71.111 368.254 95.873 M44.292 84.795 C 46.600 89.107,43.744 91.429,36.127 91.429 L 29.206 91.429 29.206 86.984 L 29.206 82.540 36.146 82.540 C 41.494 82.540,43.362 83.057,44.292 84.795 M231.838 98.095 C 232.454 100.011,231.674 100.317,226.174 100.317 L 219.795 100.317 221.514 95.556 C 222.460 92.937,223.912 89.079,224.741 86.984 L 226.248 83.175 228.686 89.524 C 230.027 93.016,231.446 96.873,231.838 98.095 M44.528 101.632 C 51.200 105.203,45.422 110.476,34.838 110.476 L 29.206 110.476 29.206 105.397 L 29.206 100.317 35.639 100.317 C 39.177 100.317,43.177 100.909,44.528 101.632 " stroke="none" fill="#000000" fill-rule="evenodd"/></g></svg>